<?xml version="1.0" standalone="no"?>
<!DOCTYPE svg PUBLIC "-//W3C//DTD SVG 20010904//EN"
 "http://www.w3.org/TR/2001/REC-SVG-20010904/DTD/svg10.dtd">
<svg version="1.0" xmlns="http://www.w3.org/2000/svg"
 width="300.000000pt" height="400.000000pt" viewBox="0 0 300.000000 400.000000"
 preserveAspectRatio="xMidYMid meet">

<g transform="translate(0.000000,400.000000) scale(0.100000,-0.100000)"
fill="#FFFFFF" stroke="none">
<path d="M2010 3379 c-47 -5 -206 -20 -355 -34 -148 -14 -364 -34 -480 -45
-115 -11 -281 -26 -368 -33 -152 -13 -158 -15 -188 -43 -36 -33 -59 -81 -59
-122 0 -27 -1 -28 -82 -40 -92 -13 -124 -31 -151 -83 -22 -41 -21 -55 28 -434
67 -519 125 -978 171 -1345 25 -201 52 -380 59 -398 24 -52 67 -72 160 -72 79
-1 80 -1 100 -33 11 -17 35 -42 54 -54 l34 -23 814 0 c894 0 859 -2 904 61
l24 34 0 1140 c0 627 -2 1164 -6 1193 -4 44 -11 59 -42 90 l-37 37 -123 5
-122 5 -7 59 c-9 68 -26 99 -71 126 -35 22 -103 24 -257 9z m225 -94 c18 -18
25 -35 25 -65 l0 -40 -655 0 c-723 0 -708 1 -756 -63 l-24 -32 -3 -1053 c-2
-802 -5 -1053 -14 -1050 -6 2 -20 15 -29 29 -19 27 -16 -19 -74 964 -63 1071
-66 1134 -55 1155 18 33 52 48 125 54 310 27 571 51 870 81 552 55 556 55 590
20z m-1665 -316 c0 -36 49 -901 55 -964 5 -62 39 -633 51 -860 4 -82 12 -142
21 -163 17 -36 55 -67 97 -78 25 -6 27 -10 24 -48 l-3 -41 -49 -3 c-63 -4 -93
3 -105 26 -6 10 -19 93 -30 183 -12 90 -32 250 -46 354 -14 105 -57 438 -95
740 -39 303 -78 605 -87 673 -13 101 -13 127 -3 147 17 31 68 51 138 54 26 1
32 -3 32 -20z m1215 -769 c-4 -26 -3 -40 4 -40 6 0 11 13 11 29 0 38 12 45 55
31 39 -13 42 -20 19 -56 -9 -13 -14 -27 -11 -31 4 -3 14 8 24 26 10 17 21 31
24 31 28 0 124 -123 115 -146 -3 -7 0 -14 5 -16 6 -2 13 -22 16 -46 l6 -42
-37 0 c-20 0 -36 -4 -36 -10 0 -5 16 -10 36 -10 l36 0 -7 -37 c-9 -51 -17 -57
-54 -39 -17 9 -31 12 -31 7 0 -5 14 -15 30 -23 36 -16 37 -28 6 -65 l-24 -28
-26 24 c-32 30 -35 17 -4 -16 21 -23 21 -23 2 -38 -48 -38 -52 -37 -74 2 -15
26 -19 30 -15 13 14 -51 11 -63 -18 -72 -41 -14 -57 -4 -59 39 l-1 38 -6 -45
c-3 -25 -9 -44 -13 -42 -5 1 -24 2 -44 2 l-36 0 6 43 c6 40 -2 33 -18 -16 -5
-17 -8 -16 -46 3 -42 21 -120 93 -120 109 0 6 14 18 30 28 17 9 30 21 30 26 0
5 -16 0 -36 -12 l-35 -21 -15 35 c-21 52 -18 62 24 73 l37 10 -37 1 c-44 1
-47 5 -40 54 3 29 8 37 21 33 9 -2 27 -8 40 -11 15 -5 21 -3 17 3 -3 6 -20 13
-36 17 -34 8 -36 14 -15 55 18 35 17 35 58 14 l32 -15 -28 25 c-26 24 -27 27
-12 50 25 38 47 41 73 10 13 -14 26 -24 29 -20 3 3 -1 14 -9 23 -29 35 -29 42
3 58 35 19 59 14 59 -12 0 -10 5 -25 11 -33 8 -11 9 -4 5 28 l-6 42 46 0 46 0
-7 -40z m-298 -10 c-127 -139 -127 -355 0 -499 40 -46 43 -52 22 -46 -55 17
-155 67 -221 111 -80 53 -198 160 -198 179 0 18 126 135 195 182 82 55 192
109 229 112 4 1 -8 -17 -27 -39z m603 -6 c52 -25 117 -62 145 -82 66 -48 175
-152 175 -167 0 -19 -117 -124 -197 -177 -75 -50 -208 -118 -232 -118 -7 0 9
24 36 53 77 81 113 195 93 296 -15 79 -51 150 -100 199 -24 23 -36 42 -28 42
8 0 57 -21 108 -46z"/>
<path d="M1697 2086 c-68 -25 -99 -69 -99 -142 0 -85 67 -154 149 -154 98 0
175 86 159 176 -6 30 -9 33 -26 24 -53 -29 -114 11 -108 72 4 39 -15 45 -75
24z"/>
</g>
</svg>
